<?xml version="1.0" standalone="no"?>
<!DOCTYPE svg PUBLIC "-//W3C//DTD SVG 20010904//EN"
 "http://www.w3.org/TR/2001/REC-SVG-20010904/DTD/svg10.dtd">
<svg version="1.0" xmlns="http://www.w3.org/2000/svg"
 width="48.000000pt" height="48.000000pt" viewBox="0 0 48.000000 48.000000"
 preserveAspectRatio="xMidYMid meet">

<g transform="translate(0.000000,48.000000) scale(0.100000,-0.100000)"
fill="#000000" stroke="none">
<path d="M88 336 c-27 -46 -48 -89 -48 -96 0 -7 21 -50 48 -96 l47 -83 105 -1
106 0 51 90 52 90 -52 90 -51 90 -106 0 -105 0 -47 -84z m82 -71 c5 -14 12
-38 16 -53 5 -25 4 -25 -9 -9 -17 21 -47 22 -47 2 0 -8 -4 -15 -10 -15 -13 0
-13 -2 6 53 18 53 30 59 44 22z m100 16 c0 -5 -8 -7 -19 -4 -32 8 -33 -15 -1
-32 33 -17 33 -17 24 -39 -7 -18 -59 -22 -69 -6 -4 6 6 7 25 4 38 -8 42 17 5
34 -15 7 -25 20 -25 32 0 16 7 20 30 20 17 0 30 -4 30 -9z m48 -18 l10 -28 7
28 c12 45 25 31 24 -25 -2 -49 -2 -51 -9 -18 -4 19 -8 27 -9 18 -2 -26 -22
-22 -29 5 -6 18 -8 15 -13 -18 -6 -39 -6 -39 -8 13 -1 56 12 68 27 25z"/>
<path d="M145 257 c-4 -10 -5 -21 -1 -24 10 -10 18 4 13 24 -4 17 -4 17 -12 0z"/>
</g>
</svg>
