o 
v 6.315408706665039 35.22175481704376 -25.318142917126437
v 12.51426887512207 18.286171246154233 -23.10407597450242
v 9.692121505737305 20.001704352232835 -28.02385780210673
v 4.770994186401367 33.988535252312666 -29.435290033650087
v 1.9565143585205078 18.567951268576955 -24.04476468701443
v 7.082895278930664 17.804414876511437 -29.717716230605472
v 9.278162002563477 18.250407053473793 -29.709927592920767
v 8.25755500793457 17.48976554080426 -29.723208455189862
v 5.843679428100586 16.816757196813455 -29.734961582448978
v 4.715307235717773 21.51321663233654 -29.65302845377022
v 8.62141227722168 21.33806834064558 -17.732905889974322
v 8.623830795288086 16.25805919885905 -11.220379361205795
v 0.0000019073486328125 38.22825460981649 -20.614328710871842
v 0.0000019073486328125 27.875593637720115 -7.330385548319209
v 10.764204025268555 18.212769254270256 -29.710578840232092
v 0.0000019073486328125 2.6239171538689554 -9.83106404301745
v 6.512643814086914 8.049116161438253 -4.403960223572651
v 0.0000019073486328125 28.816474678361175 -2.6223985565670977
v 11.79499626159668 14.588053140306833 -7.0526831788683255
v 7.853792190551758 19.39597333708174 -2.013927300233701
v -1.9565105438232422 18.567951268576955 -24.04476468701443
v 7.558893203735352 5.393847281343657 0.03857479834219685
v 9.057313919067383 20.011247654389553 9.023802333265424
v 9.013303756713867 15.607699299820363 9.032537695904855
v 6.942316055297852 11.99404789123421 13.687522136185711
v 0.0000019073486328125 9.408898099221425 16.726245701766437
v 0.0000019073486328125 25.060110891337736 1.2993679207897375
v 15.829547882080078 11.723223418246992 29.203045802293964
v 15.282865524291992 14.398491828432142 17.749002062352233
v 15.829595565795898 13.14352403440581 29.227837241766604
v 8.357572555541992 14.419916111577294 20.375558017782783
v 13.941499710083008 13.226015741066433 29.229277139862404
v 0.0000019073486328125 37.39199355023336 -29.375899616831983
v 2.4685535430908203 46.702646632266564 -29.213301441915615
v 2.3854923248291016 35.69025672310874 -29.405592097805126
v 0.0000019073486328125 57.72535195528606 -14.517042447933406
v 0.0000019073486328125 57.45497005065094 -5.641892383604926
v 0.0000019073486328125 48.262858237586386 -5.8023374768510525
v 8.531213760375977 42.50179450827015 -17.750141521881392
v 0.0000019073486328125 3.1455909461626703 2.6862315785304993
v -4.770994186401367 33.988535252312666 -29.435290033650087
v -12.514265060424805 18.286171246154233 -23.10407597450242
v -7.082895278930664 17.804414876511437 -29.717716230605472
v -4.715307235717773 21.51321663233654 -29.65302845377022
v -5.843679428100586 16.816757196813455 -29.734961582448978
v -8.257551193237305 17.48976554080426 -29.723208455189862
v -9.278162002563477 18.250407053473793 -29.709927592920767
v -10.764204025268555 18.212769254270256 -29.710578840232092
v -8.62141227722168 21.33806834064558 -17.732905889974322
v -8.623830795288086 16.258059232146874 -11.22038126826393
v -9.195329666137695 6.515142756218125 -8.346943553453789
v -6.512643814086914 8.049116161438253 -4.403960223572651
v -11.79499626159668 14.588053140306833 -7.0526831788683255
v -7.853788375854492 19.39597333708174 -2.013927300233701
v -9.057313919067383 20.0112477209652 9.023798519149155
v -7.558893203735352 5.393847248055831 0.0385767054003312
v -9.013303756713867 15.607699299820363 9.032537695904855
v -6.942312240600586 11.99404789123421 13.687522136185711
v -15.829549789428711 11.72322348482264 29.203041988177695
v -15.829595565795898 13.143524100981459 29.227833427650335
v -15.282865524291992 14.398491895007789 17.748998248235964
v -8.357572555541992 14.419916111577294 20.375558017782783
v -13.941499710083008 13.226015807642082 29.229273325746135
v -2.4685535430908203 46.702646632266564 -29.213301441915615
v -2.385488510131836 35.69025672310874 -29.405592097805126
v -8.531213760375977 42.50179450827015 -17.750141521881392
v 1.8787479400634766 9.518713725432708 -14.948888933541431
v 8.534883499145508 16.240056568623423 -11.32473623891714
v 1.8782634735107422 14.347958376511105 -18.956872205898073
v 3.553762435913086 14.813275410537114 -17.08530326049776
v 5.006795883178711 12.279492915964294 -29.813768759036705
v 1.908639907836914 14.355558718790247 -18.92191749592056
v 1.8782672882080078 12.206117075016348 -29.815494019032506
v 5.120515823364258 9.21902216092851 -28.36113696030811
v -8.534894943237305 16.24005623574519 -11.324717168335797
v -3.5537586212158203 14.813275410537114 -17.08530326049776
v -1.8782634735107422 14.347958343223281 -18.956870298839938
v -1.8787479400634766 9.518713725432708 -14.948888933541431
v -5.006795883178711 12.279492915964294 -29.813768759036705
v -1.908639907836914 14.355558685502423 -18.921915588862426
v -1.8782634735107422 12.206117075016348 -29.815494019032506
v -5.120512008666992 9.21902216092851 -28.36113696030811
v 8.623270034790039 16.26479853131989 -11.225276909112505
v -8.623270034790039 16.26479853131989 -11.225276909112505
f 1 2 3
f 3 4 1
f 2 5 6
f 4 7 8
f 4 6 9
f 4 9 10
f 11 2 1
f 5 2 11
f 6 10 9
f 12 1 13
f 13 14 12
f 4 3 15
f 6 8 3
f 12 11 1
f 16 19 17
f 14 18 19
f 19 12 14
f 20 19 18
f 5 10 6
f 5 16 21
f 21 10 5
f 22 20 23
f 22 23 24
f 25 22 24
f 22 17 20
f 23 27 26
f 26 25 23
f 23 20 27
f 28 24 29
f 29 30 28
f 25 32 31
f 29 25 31
f 31 32 30
f 24 28 25
f 23 25 24
f 19 20 17
f 7 15 3
f 8 7 3
f 33 34 35
f 37 38 39
f 39 35 34
f 33 35 4
f 4 10 33
f 1 4 35
f 35 13 1
f 35 39 13
f 40 17 22
f 25 40 22
f 39 34 37
f 36 37 34
f 38 13 39
f 48 42 41
f 43 21 42
f 41 44 45
f 41 46 47
f 41 47 48
f 33 10 44
f 49 41 42
f 21 49 42
f 43 45 44
f 50 14 13
f 13 41 50
f 46 43 48
f 41 49 50
f 16 17 51
f 52 51 17
f 14 50 53
f 53 18 14
f 18 53 54
f 54 20 18
f 43 44 21
f 55 54 56
f 57 55 56
f 58 57 56
f 54 52 56
f 27 20 54
f 55 58 26
f 26 27 55
f 27 54 55
f 51 52 53
f 59 60 61
f 61 57 59
f 63 58 62
f 60 63 62
f 61 58 57
f 55 57 58
f 53 52 54
f 48 47 46
f 64 33 65
f 36 34 64
f 37 66 38
f 64 65 66
f 33 44 41
f 41 65 33
f 41 13 65
f 65 13 66
f 40 52 17
f 52 40 56
f 56 40 58
f 66 37 64
f 36 64 37
f 38 66 13
f 68 11 12
f 70 71 72
f 69 71 73
f 74 73 71
f 67 73 74
f 67 16 69
f 75 49 76
f 77 79 80
f 81 78 82
f 82 79 81
f 79 76 80
f 3 2 6
f 7 4 15
f 6 4 8
f 10 21 44
f 26 40 25
f 32 25 28
f 29 31 30
f 25 29 24
f 28 30 32
f 42 48 43
f 43 41 45
f 46 41 43
f 40 26 58
f 58 63 59
f 62 61 60
f 58 61 62
f 59 57 58
f 60 59 63
f 33 64 34
f 19 67 12
f 16 67 19
f 68 12 16
f 11 68 70
f 70 5 11
f 72 5 70
f 69 5 72
f 69 16 5
f 68 12 83
f 68 16 12
f 71 68 83
f 71 70 68
f 71 69 72
f 83 74 71
f 83 67 74
f 83 12 67
f 67 69 73
f 50 75 16
f 49 75 50
f 21 76 49
f 21 80 76
f 21 77 80
f 16 77 21
f 78 51 50
f 78 16 51
f 53 50 51
f 50 75 84
f 16 75 50
f 77 78 81
f 16 78 77
f 79 77 81
f 82 84 79
f 78 84 82
f 50 84 78
f 75 79 84
f 76 79 75
