o 
v 38.07057571411133 61.36666780577315 -7.20279858064923
v 40.30001449584961 47.09005519435849 -53.71124436837574
v -10.686271667480469 89.76325543004975 35.37339433627634
v -22.79842185974121 32.155904404745726 -39.378481247490505
v 1.691446304321289 69.59861012433392 -43.53542917331399
v -1.6065254211425781 78.62786782849284 -25.884172655809312
v -20.513927459716797 58.67032323817884 21.14324727406095
v -18.848812103271484 62.27105951749188 9.778569012141116
v -13.951770782470703 91.80728184856919 54.30443737791633
v -0.13048171997070312 81.56118301029153 45.22315790323615
v 6.1916656494140625 70.9900858591957 34.80525333971538
v 29.051494598388672 63.54122011696997 5.28117627439595
v -0.9445514678955078 70.69996266055306 -14.048494414572122
v -32.32633972167969 71.6423379894238 41.77328726874311
v -25.573341369628906 87.6576489805493 25.842999782076056
v -28.291175842285156 87.91024772699586 51.93386338724294
v -23.785348892211914 59.615525333091675 31.869140602567704
v -52.72856521606445 43.861132791260964 1.061996549328793
v -51.76524353027344 45.35756862785999 27.355449704551955
v 24.660442352294922 65.66839341245971 -53.32991222661629
v -7.77574348449707 71.2278246895747 -53.272882816777184
v 18.580455780029297 40.711091009210904 16.14213359404691
v -16.194242477416992 34.11195284590522 6.210424775736929
v -36.62432861328125 29.917998182976216 -53.92996248739869
v -34.883323669433594 27.212404992883144 -4.032405970713402
v 41.676212310791016 26.082891444617946 -7.853112075063656
v -37.7250862121582 53.84311127210886 -33.90029506482336
v 0.9456214904785156 77.30614128157808 53.97187730196182
v -0.6286735534667969 62.58759992260006 52.97372429830369
v -35.989742279052734 17.74710320305924 3.2943356573185048
v -10.297178268432617 15.602360322480997 -52.33008528810668
v 16.579364776611328 18.91490407066923 -49.18808516963848
v 12.541805267333984 10.8200724737368 -29.175960946580723
v 37.09444046020508 26.921891944950595 -54.022278170938876
v 16.298606872558594 20.505058195837677 -54.158065050624984
v 52.82522964477539 42.46341761298805 -27.397657094824694
f 1 20 6
f 20 36 2
f 16 3 15
f 20 5 6
f 9 3 16
f 10 11 7
f 12 1 13
f 28 11 10
f 8 13 18
f 21 20 24
f 13 5 27
f 17 10 7
f 1 12 22
f 1 22 26
f 18 13 27
f 6 5 13
f 19 30 29
f 1 6 13
f 17 7 3
f 3 9 17
f 7 23 8
f 31 32 33
f 34 24 2
f 26 33 36
f 28 10 17
f 14 19 17
f 19 18 30
f 35 34 33
f 29 30 23
f 26 22 25
f 22 23 25
f 14 18 19
f 29 23 7
f 35 24 34
f 28 17 29
f 8 18 14
f 22 8 23
f 20 2 24
f 19 29 17
f 17 9 16
f 35 32 31
f 25 33 26
f 12 13 8
f 21 27 5
f 4 24 31
f 25 23 30
f 18 4 25
f 36 20 1
f 15 8 14
f 18 27 4
f 7 8 15
f 16 15 14
f 21 24 4
f 25 31 33
f 15 3 7
f 36 33 34
f 22 12 8
f 31 25 4
f 29 7 11
f 11 28 29
f 26 36 1
f 36 34 2
f 25 30 18
f 21 4 27
f 5 20 21
f 31 24 35
f 32 35 33
f 14 17 16
